<svg viewBox="0 0 40 40" fill="none" xmlns="http://www.w3.org/2000/svg">
<path d="M26.7764 14.9913C27.2646 14.5031 27.2646 13.7117 26.7764 13.2235C26.2883 12.7354 25.4968 12.7354 25.0087 13.2235L20 18.2322L14.9913 13.2235C14.5032 12.7354 13.7117 12.7354 13.2236 13.2235C12.7354 13.7117 12.7354 14.5032 13.2236 14.9913L18.2322 20L13.2235 25.0087C12.7354 25.4968 12.7354 26.2883 13.2235 26.7764C13.7117 27.2646 14.5032 27.2646 14.9913 26.7764L20 21.7677L25.0087 26.7764C25.4968 27.2646 26.2883 27.2646 26.7764 26.7764C27.2646 26.2883 27.2646 25.4968 26.7764 25.0087L21.7678 20L26.7764 14.9913Z" fill="current"/>
</svg>
