<svg width="55" height="55" viewBox="0 0 55 55" fill="none" xmlns="http://www.w3.org/2000/svg">
<circle cx="27.5" cy="27.5" r="27.5" fill="#8DA5FC"/>
<path d="M28.8388 18.588C28.8388 17.8497 28.2403 17.2512 27.502 17.2512C26.7637 17.2512 26.1652 17.8497 26.1652 18.588V26.1632H18.59C17.8517 26.1632 17.2532 26.7617 17.2532 27.5C17.2532 28.2383 17.8517 28.8368 18.59 28.8368H26.1652V36.4121C26.1652 37.1504 26.7637 37.7489 27.502 37.7489C28.2403 37.7489 28.8388 37.1504 28.8388 36.4121V28.8368H36.4141C37.1524 28.8368 37.7509 28.2383 37.7509 27.5C37.7509 26.7617 37.1524 26.1632 36.4141 26.1632H28.8388V18.588Z" fill="white"/>
</svg>
