<svg width="50" height="50" viewBox="0 0 50 50" fill="none" xmlns="http://www.w3.org/2000/svg">
<path d="M28.9125 18.2291H8.33331C7.47037 18.2291 6.77081 17.5296 6.77081 16.6666C6.77081 15.8037 7.47037 15.1041 8.33331 15.1041H28.9125C29.556 13.2835 31.2923 11.9791 33.3333 11.9791C35.3743 11.9791 37.1106 13.2835 37.7541 15.1041H41.6666C42.5296 15.1041 43.2291 15.8037 43.2291 16.6666C43.2291 17.5296 42.5296 18.2291 41.6666 18.2291H37.7541C37.1106 20.0497 35.3743 21.3541 33.3333 21.3541C31.2923 21.3541 29.556 20.0497 28.9125 18.2291Z" fill="current"/>
<path d="M41.6666 34.8958C42.5296 34.8958 43.2291 34.1962 43.2291 33.3333C43.2291 32.4704 42.5296 31.7708 41.6666 31.7708H21.0874C20.4439 29.9502 18.7076 28.6458 16.6666 28.6458C14.6257 28.6458 12.8894 29.9502 12.2459 31.7708H8.33331C7.47037 31.7708 6.77081 32.4704 6.77081 33.3333C6.77081 34.1962 7.47037 34.8958 8.33331 34.8958H12.2459C12.8894 36.7164 14.6257 38.0208 16.6666 38.0208C18.7076 38.0208 20.4439 36.7164 21.0874 34.8958H41.6666Z" fill="current"/>
</svg>
